PathFileType	4	(X/Y/Z)	C:/Users/beibeiliu/ov580/test_trc/User2\sequence.14_training_dense_right.trc
DataRate	CameraRate	NumFrames	NumMarkers	Units	OrigDataRate	OrigDataStartFrame	OrigNumFrames
120	120	16	19	mm	120	316	420
Frame#	Time	ThumbCMC			ThumbMCP			ThumbIP			ThumbTip			IndexMCP			IndexPIP			IndexTip			MiddleMCP			MiddlePIP			MiddleTip			RingMCP			RingPIP			RingTip			PinkyMCP			PinkyPIP			PinkyTip			BackHand1			BackHand2			BackHand3	
		X0	Y0	Z0	X1	Y1	Z1	X2	Y2	Z2	X3	Y3	Z3	X4	Y4	Z4	X5	Y5	Z5	X6	Y6	Z6	X7	Y7	Z7	X8	Y8	Z8	X9	Y9	Z9	X10	Y10	Z10	X11	Y11	Z11	X12	Y12	Z12	X13	Y13	Z13	X14	Y14	Z14	X15	Y15	Z15	X16	Y16	Z16	X17	Y17	Z17	X18	Y18	Z18	
315	2.625	146.57	19.5756	47.2463	134.796	45.2319	17.8175	108.558	55.3924	-7.7591	79.6522	54.1675	-18.6822	120.648	-20.8946	-23.2946	114.833	-22.6557	-48.4209	107.668	-21.2977	-81.1707	89.119	-15.542	-22.242	75.0262	16.427	-40.9824	87.7827	44.8959	-20.3	63.8516	-9.78495	-13.3209	60.3803	15.4614	-27.5924	79.9127	43.4893	-7.29046	50.4035	-15.7876	15.155	35.1106	-16.9769	-4.11251	15.4201	-24.3136	-20.9141	89.0129	-25.0927	44.1847	100.81	-23.2083	77.7531	128.463	-23.961	47.1042	
316	2.63333	148.436	19.9194	46.197	131.974	42.5734	16.559	110.354	55.3118	-8.09525	79.2931	49.8511	-18.702	127.913	-21.3674	-27.1576	122.975	-22.5442	-54.7889	111.896	-21.7678	-80.4116	94.1713	-17.4981	-25.8664	78.9682	8.58955	-43.7099	84.7704	42.4438	-19.371	70.8106	-13.5289	-14.6883	61.3683	13.0507	-29.0711	75.6743	41.4424	-5.65853	54.3663	-20.5256	12.5596	40.3805	-22.9334	-2.84681	21.2268	-31.5651	-21.8386	93.9164	-27.4059	47.4264	104.498	-27.9856	79.4084	134.095	-23.638	45.5853	
317	2.64167	143.253	24.6539	43.3146	125.517	46.8954	13.2674	96.6535	52.7388	-11.3452	72.7099	40.8981	-12.6848	130.897	-18.4737	-26.8756	126.317	-19.7545	-51.5812	118.477	-18.4158	-78.224	93.7734	-21.0433	-27.4956	74.573	5.73007	-41.1975	78.49	37.6015	-16.654	77.6394	-20.6482	-12.102	59.6012	6.68391	-27.6701	71.7145	34.2357	-5.39229	59.8899	-29.7387	14.8046	45.4017	-33.8461	-5.24779	32.7531	-40.8496	-26.0992	97.4341	-33.602	42.8588	109.179	-32.0941	75.9544	136.643	-19.8749	44.3293	
318	2.65	134.34	31.686	42.7913	109.785	49.7974	19.8358	78.5807	45.1776	-4.93591	57.6842	30.1879	-9.25456	130.471	-9.34709	-26.6709	124.095	-10.8297	-54.8024	115.397	-11.0285	-81.9889	96.8528	-22.1845	-25.9608	74.1159	-1.09318	-41.1904	66.221	30.9119	-13.5977	79.9624	-28.1667	-11.2042	59.4987	-4.43831	-26.9555	62.5525	24.2937	-3.25599	69.8841	-42.1282	13.83	54.9811	-49.9999	-5.40348	46.1496	-55.6586	-29.8017	110.749	-32.2082	42.1224	119.662	-30.2738	72.699	138.945	-13.5605	43.9944	
319	2.65833	117.473	42.1722	52.1025	84.9503	45.5803	26.3167	57.7313	35.6135	2.39071	41.3352	14.0312	-6.71901	126.429	6.93297	-23.0168	120.634	6.80601	-50.5459	111.182	8.28484	-81.5867	104.552	-13.9426	-24.9187	69.3959	-3.54665	-38.3893	53.2226	16.9028	-12.6998	89.7479	-28.7107	-17.3872	60.3336	-20.2599	-25.1687	50.6516	5.75147	2.31075	87.8791	-47.3663	12.0114	77.8852	-57.3691	-11.455	70.8999	-63.1362	-34.7219	121.327	-28.4776	39.5993	131.135	-27.4144	73.833	141.172	1.65053	45.5227	
320	2.66667	95.8132	40.356	55.9681	63.3682	34.1521	37.373	41.4185	17.2821	13.0007	35.1467	-6.7965	-2.34041	114.698	23.4018	-20.4884	107.721	27.5569	-48.545	96.8334	24.0933	-74.1262	102.524	-3.86363	-27.0133	69.1246	-7.2514	-37.1505	45.0929	0.660335	-5.22334	98.2798	-28.3742	-17.1159	66.9987	-28.8967	-25.1757	46.8958	-13.8206	2.79759	106.946	-42.7867	7.1323	101.369	-53.2005	-17.0997	96.7826	-62.2888	-43.7829	129.013	-17.147	39.0637	137.801	-16.4784	72.1512	135.556	18.8556	50.6101	
321	2.675	78.4008	31.1129	68.7731	49.8091	16.39	46.708	31.1266	-2.34011	18.6045	36.5449	-26.7441	-0.546596	96.1852	34.7107	-12.4229	86.3415	34.1068	-43.2367	74.1768	32.255	-65.9636	96.6627	0.82953	-23.5879	66.0727	-13.5233	-31.3657	44.8398	-20.0728	2.68147	100.955	-16.3611	-15.9722	72.2616	-31.0792	-25.9504	50.6931	-29.3602	-0.513461	118.563	-35.8773	-0.233203	116.865	-45.221	-22.6719	113.841	-49.7904	-49.126	132.726	-5.90874	39.0003	142.141	-4.15825	69.2911	123.809	24.323	52.7327	
322	2.68333	67.9872	18.2466	72.9624	46.5455	-2.60202	51.4023	31.3648	-22.6111	23.0675	41.2152	-39.997	5.84809	79.4979	32.4512	-4.63094	65.8764	35.1588	-34.2354	56.5254	27.7974	-57.9424	85.5489	6.0807	-19.1368	59.7131	-17.9941	-27.4177	45.9845	-31.9397	9.89934	98.3672	-15.755	-17.0382	72.8797	-35.3127	-22.9156	54.6642	-43.0719	6.17753	125.303	-31.2653	-1.38047	120.504	-35.8693	-23.02	122.596	-43.9287	-51.3885	131.422	-1.57853	37.6409	140.931	2.1332	67.9178	113.436	25.8137	60.2348	
323	2.69167	64.9316	6.33428	78.2385	44.1567	-15.5792	53.2713	34.37	-35.4944	29.3034	45.4148	-51.8188	4.38465	66.7184	28.5174	-2.66091	54.8927	27.2303	-29.942	41.1746	21.5244	-55.5425	81.9179	2.55343	-15.0004	56.0996	-26.4699	-22.857	50.3035	-42.2757	10.0781	97.2972	-15.5499	-13.8822	72.0813	-37.8413	-21.5176	61.3622	-53.9124	6.71705	124.954	-28.0966	-2.48908	120.421	-33.1681	-26.391	124.423	-38.8393	-51.1054	123.994	4.92234	39.2613	135.5	7.46934	68.5184	104.182	26.9287	63.8983	
324	2.7	62.4219	-1.28837	77.1952	41.1165	-23.6191	53.2122	36.7083	-44.1571	26.8725	48.6503	-57.4181	3.2414	58.8415	23.9178	0.541239	45.4729	22.7966	-27.772	35.0872	14.7799	-54.7148	75.5601	-0.80863	-14.5235	55.9069	-32.644	-21.5084	53.5542	-48.4493	10.224	93.9751	-17.6309	-14.9041	77.1859	-44.2989	-22.6059	63.2091	-58.1234	8.49107	121.19	-25.4382	-4.99397	120.959	-35.248	-27.2503	121.916	-39.2232	-47.7818	124.023	0.834125	40.0215	133.627	6.20835	68.5241	96.88	22.139	60.6835	
325	2.70833	63.7733	-5.52506	80.939	42.9069	-28.6424	54.1394	36.8911	-48.4556	25.3827	51.9974	-59.7715	0.22473	56.2456	20.9161	-0.359177	48.5873	17.919	-25.5694	36.2532	9.21954	-51.3521	74.1595	-2.49044	-15.168	58.4324	-34.2015	-22.5899	58.6647	-51.694	10.0253	92.7456	-17.5497	-14.0625	77.6097	-42.4142	-22.815	69.5149	-61.5741	10.0594	125.014	-26.6193	-6.2577	122.196	-32.927	-29.5913	121.322	-37.644	-54.8456	121.836	2.77918	38.1732	133.674	4.93976	67.2748	95.3262	21.0693	61.7873	
326	2.71667	64.0618	-7.316	81.0753	47.2548	-30.2634	51.5441	42.9081	-47.5038	19.7679	57.4583	-57.5356	0.302249	64.3566	18.7668	-3.86327	53.9787	17.238	-27.0124	39.4351	9.3942	-51.3085	82.0268	-1.14088	-14.1794	65.7253	-35.243	-25.6041	61.6261	-52.3263	8.91199	99.683	-16.804	-13.728	85.0643	-45.1277	-25.928	73.5075	-61.5119	5.41315	129.906	-25.1364	-6.67516	126.958	-32.1249	-31.6561	129.025	-33.6178	-52.1723	123.297	2.6549	40.1945	138.128	4.12116	70.244	102.947	17.6743	64.3749	
327	2.725	70.3563	-8.14216	73.9434	47.1792	-29.3641	50.6621	46.4572	-45.9312	20.5652	63.5141	-56.0778	-4.4035	69.2725	21.5337	-1.43112	60.3465	19.0036	-30.1817	46.9959	10.0121	-56.513	89.685	-0.540007	-18.2592	73.0967	-28.5366	-31.1177	68.9628	-50.2453	5.80971	107.623	-17.0521	-17.8241	89.247	-39.2457	-28.1653	78.0615	-58.7414	1.33594	136.051	-23.7675	-4.97546	136.084	-29.9948	-29.5194	136.342	-32.7815	-56.638	131.841	1.42778	39.4878	137.583	5.88628	71.3775	105.054	18.422	61.4224	
328	2.73333	71.56	-6.52004	72.4284	55.5652	-25.8878	44.7501	50.8378	-42.1983	15.1406	64.7194	-54.8571	-11.0845	76.4914	23.8284	-3.60646	68.6594	22.3014	-34.3113	58.8454	11.6918	-60.0604	99.2125	3.69896	-19.0541	79.6266	-26.8977	-32.4162	75.0486	-47.9557	-0.549514	112.441	-12.1696	-19.8117	101.41	-38.4836	-30.4481	85.188	-56.8754	1.44876	140.839	-20.0187	-1.84909	144.321	-26.1339	-30.7937	148.477	-27.6264	-50.2489	134.631	3.11315	42.5126	143.27	2.55173	72.2943	106.955	18.1836	61.8716	
329	2.74167	74.9717	-2.50222	69.8154	58.8633	-22.2855	40.7415	54.7527	-38.0281	7.06679	73.8453	-48.8624	-11.9762	89.3799	25.838	-5.82058	81.2259	25.3618	-38.9029	76.2257	12.4035	-67.4475	107.918	5.58393	-22.5152	91.6271	-24.5617	-35.4897	79.0559	-42.8164	-3.75091	126.781	-11.0172	-15.6677	111.339	-38.2965	-30.9819	92.6452	-52.51	-6.45971	152.418	-20.0185	0.718568	159.661	-27.0427	-24.2578	160.578	-29.7896	-50.747	138.171	5.69787	44.0176	146.682	5.29526	74.1819	110.386	23.6031	63.7512	
330	2.75	78.4216	2.37043	62.5624	60.3049	-16.3426	35.205	63.0463	-33.1427	6.1083	81.2021	-47.0204	-17.6571	100.148	27.4478	-9.17281	95.8919	25.6104	-41.517	90.0527	16.42	-67.5269	116.276	9.03609	-22.6688	102.469	-19.5473	-38.6179	88.6873	-41.502	-8.2042	133.75	-10.862	-18.8387	113.994	-34.9879	-31.834	96.5714	-50.3953	-4.62473	158.947	-21.4189	5.29846	164.96	-27.6938	-21.2497	170.031	-31.6342	-47.4273	142.879	5.25601	46.0531	149.966	4.53632	75.2351	115.175	23.7774	63.394	
